<svg width="93" height="93" viewBox="0 0 93 93" fill="none" xmlns="http://www.w3.org/2000/svg">
<g clip-path="url(#clip0_187_9)">
<path d="M64.1756 0C65.0213 0.376133 65.3504 1.03274 65.3494 1.94822C65.3375 11.3742 65.3423 20.8003 65.3391 30.2268C65.3391 30.4322 65.2964 30.6376 65.2672 30.8953H62.2652V3.13877H18.9337C18.9337 3.51382 18.9337 3.86834 18.9337 4.22285C18.9337 7.75775 18.9374 11.2926 18.932 14.827C18.9293 16.5401 18.4338 17.026 16.7109 17.0271C13.176 17.0292 9.64112 17.0276 6.10623 17.0276C5.78035 17.0276 5.45502 17.0276 5.08105 17.0276V89.6607H62.2349V66.5675H65.2942C65.3115 66.9193 65.3402 67.2398 65.3407 67.5602C65.3434 75.2039 65.3439 82.8477 65.3418 90.4914C65.3418 92.3969 64.9111 92.8184 62.985 92.8184C43.4077 92.8184 23.8304 92.8184 4.25312 92.8184C2.34922 92.8184 1.93309 92.3974 1.93309 90.4606C1.93255 65.7471 1.93688 41.0336 1.91742 16.3202C1.91634 15.2782 2.21628 14.5011 2.96692 13.7613C6.99036 9.79513 10.9679 5.78305 14.9675 1.79258C15.5825 1.1792 16.2283 0.596625 16.8601 0C32.6317 0 48.4039 0 64.1756 0ZM15.7446 13.8861V5.77386C13.0636 8.45273 10.308 11.2056 7.62427 13.8861H15.7446Z" fill="#0E35A0"/>
<path d="M87.0489 24.3768C88.2799 25.0637 89.4446 25.6949 90.5908 26.3585C91.6749 26.9865 91.917 27.7993 91.2836 28.8618C88.3167 33.8379 85.3282 38.8012 82.3456 43.7676C82.2872 43.8649 82.2024 43.9465 82.0932 44.0805C81.2464 43.5699 80.4265 43.0759 79.5003 42.5177C82.304 37.8376 85.0866 33.1927 87.9395 28.43C87.124 27.9728 86.3242 27.5242 85.4671 27.0432C85.2725 27.3405 85.0866 27.6064 84.9191 27.8836C78.9815 37.6928 73.0509 47.5063 67.0971 57.3063C66.729 57.9121 66.2443 58.4795 65.7093 58.9454C62.5667 61.6826 59.3934 64.3842 56.2303 67.0976C56.0238 67.2743 55.8158 67.4494 55.6055 67.6213C55.003 68.1125 54.3431 68.2158 53.6816 67.7888C53.0553 67.3846 52.8834 66.7788 53.0472 66.0492C53.7135 63.0774 54.3669 60.1024 55.024 57.1285C55.1284 56.6572 55.2532 56.1887 55.3229 55.7126C55.6969 53.1618 56.761 50.9228 58.0909 48.7201C65.0618 37.174 71.9468 25.576 78.862 13.9958C79.9126 12.2362 80.4525 12.0887 82.1953 13.0923C84.4176 14.372 86.6392 15.6539 88.8598 16.9363C90.447 17.8528 90.6 18.4776 89.6359 20.0783C88.7831 21.4947 87.9308 22.9112 87.0483 24.3773L87.0489 24.3768ZM64.8224 55.1149C70.7952 45.2457 76.7425 35.4187 82.7282 25.5279C80.901 24.5108 79.1528 23.5381 77.3678 22.5442C71.4561 32.4404 65.612 42.2242 59.7354 52.0615C61.4686 53.1018 63.119 54.0924 64.8224 55.1149ZM78.9507 19.8789C80.7984 20.904 82.5499 21.8752 84.3349 22.8658C85.098 21.6017 85.8091 20.4242 86.5587 19.1828C84.7478 18.136 83.013 17.1335 81.215 16.0948C80.4574 17.3605 79.7348 18.5683 78.9501 19.8794L78.9507 19.8789ZM58.6589 55.0268C58.119 57.4695 57.6105 59.7722 57.0479 62.3176C59.034 60.6164 60.8298 59.0778 62.7132 57.4646C61.3232 56.6291 60.064 55.872 58.6589 55.0273V55.0268Z" fill="#0E35A0"/>
<path d="M56.0163 23.2607V26.2352H11.2883V23.2607H56.0163Z" fill="#0E35A0"/>
<path d="M56.0065 31.0239V33.9898H11.2743V31.0239H56.0071H56.0065Z" fill="#0E35A0"/>
<path d="M11.2705 41.6925V38.7158H56.0028V41.6925H11.2705Z" fill="#0E35A0"/>
<path d="M25.0901 46.4617V49.4432H11.2818V46.4617H25.0901Z" fill="#0E35A0"/>
</g>
<defs>
<clipPath id="clip0_187_9">
<rect width="93" height="93" fill="white"/>
</clipPath>
</defs>
</svg>
