<svg width="93" height="93" viewBox="0 0 93 93" fill="none" xmlns="http://www.w3.org/2000/svg">
<g clip-path="url(#clip0_192_50)">
<path d="M93 1.09872V93H1.09844C0.253073 92.5979 0 91.9083 0 91.0039C0.0113075 61.3445 0.00861525 31.6846 0.0107691 2.02517C0.0113075 0.501178 0.500761 0.0113048 2.02297 0.0107664C31.6831 0.00861316 61.3427 0.0113048 91.0023 0C91.9069 0 92.5972 0.252473 93 1.09872ZM3.17364 15.5403V89.854H89.8506V15.5403H3.17364ZM89.8619 3.16749H3.17095V12.3432H89.8619V3.16749Z" fill="#1231A0"/>
<path d="M46.4997 55.788C49.4031 55.788 52.3064 55.7847 55.2103 55.7891C56.8854 55.7917 57.3636 56.2714 57.3646 57.959C57.3684 63.7659 57.369 69.5728 57.3646 75.3797C57.363 77.0097 56.8757 77.5087 55.2652 77.5109C49.4278 77.5179 43.591 77.5174 37.7536 77.5109C36.1377 77.5093 35.6467 77.0119 35.6451 75.3888C35.6397 69.5819 35.6408 63.7751 35.6445 57.9682C35.6456 56.2482 36.1205 55.7896 37.8807 55.788C40.7539 55.7853 43.6271 55.7874 46.5003 55.7874L46.4997 55.788ZM38.8171 58.942V74.3445H54.2088V58.942H38.8171Z" fill="#1231A0"/>
<path d="M63.5644 66.5992C63.5644 63.6653 63.5601 60.7314 63.566 57.7976C63.5692 56.2887 64.0608 55.7929 65.5841 55.7913C71.4516 55.7848 77.3197 55.7853 83.1872 55.7913C84.76 55.7929 85.2333 56.2709 85.235 57.8579C85.2403 63.7256 85.2409 69.5933 85.235 75.461C85.2333 77.0394 84.7627 77.5104 83.1738 77.512C77.3364 77.519 71.499 77.5185 65.6616 77.512C64.0178 77.5104 63.5676 77.048 63.566 75.4007C63.5628 72.4669 63.5649 69.533 63.5649 66.5992H63.5644ZM66.7208 58.9437V74.3505H82.0877V58.9437H66.7208Z" fill="#1231A0"/>
<path d="M46.532 20.1634C49.4655 20.1634 52.399 20.1596 55.333 20.165C56.8569 20.1677 57.3603 20.6506 57.3625 22.1643C57.3711 28.0617 57.3711 33.9595 57.3625 39.8568C57.3603 41.3356 56.8714 41.8368 55.4138 41.8395C49.486 41.8502 43.5581 41.8497 37.6309 41.84C36.121 41.8373 35.6477 41.3448 35.6461 39.8014C35.6391 33.9342 35.6391 28.067 35.6461 22.1999C35.6483 20.6393 36.1442 20.1672 37.7315 20.165C40.665 20.1612 43.5985 20.1639 46.5326 20.1639L46.532 20.1634ZM54.2087 23.3126H38.8004V38.6951H54.2087V23.3126Z" fill="#1231A0"/>
<path d="M85.2371 30.9725C85.2371 33.9365 85.2441 36.9005 85.2344 39.8645C85.2296 41.375 84.788 41.8369 83.3041 41.8396C77.3762 41.8498 71.4484 41.8493 65.5206 41.8396C64.0269 41.8374 63.5681 41.3675 63.5671 39.8838C63.5622 33.9558 63.5617 28.0284 63.5671 22.1004C63.5687 20.6345 64.0501 20.1662 65.5448 20.1651C71.4425 20.1608 77.3402 20.1608 83.2378 20.1651C84.7762 20.1662 85.2301 20.6184 85.235 22.1714C85.2441 25.1053 85.2376 28.0386 85.2376 30.9725H85.2371ZM66.7089 23.2825V38.6931H82.0672V23.2825H66.7089Z" fill="#1231A0"/>
<path d="M7.81836 71.2356V68.2522H29.3947V71.2356H7.81836Z" fill="#1231A0"/>
<path d="M29.4238 26.4268V29.3692H7.8302V26.4268H29.4238Z" fill="#1231A0"/>
<path d="M45.0077 49.553V46.5454H57.3081V49.553H45.0077Z" fill="#1231A0"/>
<path d="M45.0034 85.1621V82.1948H57.3059V85.1621H45.0034Z" fill="#1231A0"/>
<path d="M72.8737 85.1777V82.2158H85.1558V85.1777H72.8737Z" fill="#1231A0"/>
<path d="M85.1946 49.5633H72.9178V46.5681H85.1946V49.5633Z" fill="#1231A0"/>
<path d="M17.0259 20.2102V23.1947H7.83234V20.2102H17.0259Z" fill="#1231A0"/>
<path d="M7.81671 65.0121V62.0508H17.0103V65.0121H7.81671Z" fill="#1231A0"/>
<path d="M41.7936 46.5588V49.5293H35.7091V46.5588H41.7936Z" fill="#1231A0"/>
<path d="M63.615 46.5444H69.6871V49.5418H63.615V46.5444Z" fill="#1231A0"/>
<path d="M35.6913 85.1809V82.1975H41.7629V85.1809H35.6913Z" fill="#1231A0"/>
<path d="M63.6301 82.1863H69.7027V85.1643H63.6301V82.1863Z" fill="#1231A0"/>
<path d="M14.0245 37.1599V34.1953H17.0027V37.1599H14.0245Z" fill="#1231A0"/>
<path d="M23.2181 34.1658V37.1572H20.2184V34.1658H23.2181Z" fill="#1231A0"/>
<path d="M26.3993 34.1597H29.3807V37.1624H26.3993V34.1597Z" fill="#1231A0"/>
<path d="M20.1833 49.5208V46.5735H23.1955V49.5208H20.1833Z" fill="#1231A0"/>
<path d="M7.84039 52.7239H10.8013V55.7363H7.84039V52.7239Z" fill="#1231A0"/>
<path d="M17.0447 52.7551V55.7078H14.0428V52.7551H17.0447Z" fill="#1231A0"/>
<path d="M20.2259 52.7388H23.21V55.7162H20.2259V52.7388Z" fill="#1231A0"/>
<path d="M29.3726 55.7492H26.4047V52.7405H29.3726V55.7492Z" fill="#1231A0"/>
<path d="M17.0259 46.5542V49.5306H14.0316V46.5542H17.0259Z" fill="#1231A0"/>
<path d="M7.81781 49.5315V46.553H10.7965V49.5315H7.81781Z" fill="#1231A0"/>
<path d="M26.3864 43.3388V40.3743H29.3952V43.3388H26.3864Z" fill="#1231A0"/>
<path d="M20.2076 43.3592V40.385H23.1976V43.3592H20.2076Z" fill="#1231A0"/>
<path d="M14.0116 43.3636V40.3796H17.0129V43.3636H14.0116Z" fill="#1231A0"/>
<path d="M10.8234 75.9956V78.9806H7.84308V75.9956H10.8234Z" fill="#1231A0"/>
<path d="M14.0289 75.989H16.9957V78.9713H14.0289V75.989Z" fill="#1231A0"/>
<path d="M23.2089 75.9966V78.9633H20.227V75.9966H23.2089Z" fill="#1231A0"/>
<path d="M29.3748 78.9949H26.4031V76.0186H29.3748V78.9949Z" fill="#1231A0"/>
<path d="M10.8186 82.1931V85.183H7.84094V82.1931H10.8186Z" fill="#1231A0"/>
<path d="M29.3936 49.5541H26.4176V46.5637H29.3936V49.5541Z" fill="#1231A0"/>
<path d="M20.2135 85.1783V82.2148H23.189V85.1783H20.2135Z" fill="#1231A0"/>
<path d="M29.3893 85.1906H26.4197V82.2024H29.3893V85.1906Z" fill="#1231A0"/>
<path d="M7.81836 40.3564H10.8068V43.3549H7.81836V40.3564Z" fill="#1231A0"/>
<path d="M7.84149 34.1707H10.8035V37.1675H7.84149V34.1707Z" fill="#1231A0"/>
<path d="M14.0348 82.1873H17.0049V85.1556H14.0348V82.1873Z" fill="#1231A0"/>
<path d="M6.2547 6.24463H12.3171V9.23124H6.2547V6.24463Z" fill="#1231A0"/>
<path d="M15.5408 9.21505V6.26074H21.6388V9.21505H15.5408Z" fill="#1231A0"/>
<path d="M83.772 6.24561H86.7388V9.22791H83.772V6.24561Z" fill="#1231A0"/>
<path d="M80.565 6.25049V9.23979H77.5841V6.25049H80.565Z" fill="#1231A0"/>
</g>
<defs>
<clipPath id="clip0_192_50">
<rect width="93" height="93" fill="white"/>
</clipPath>
</defs>
</svg>
