<svg width="93" height="93" viewBox="0 0 93 93" fill="none" xmlns="http://www.w3.org/2000/svg">
<g clip-path="url(#clip0_202_17)">
<path d="M80.7245 0C81.0847 0.139127 81.4522 0.263664 81.8034 0.419987C83.9565 1.37929 84.8476 3.03162 84.8476 5.16542C84.8476 16.281 84.8499 27.3966 84.8408 38.5122C84.8408 38.903 84.8046 39.3199 84.6565 39.6794C84.3817 40.3479 83.7739 40.6835 83.0117 40.6241C82.2591 40.5658 81.701 40.1755 81.5365 39.4647C81.4477 39.0817 81.4562 38.6758 81.4556 38.2798C81.4511 31.1343 81.4528 23.9883 81.4528 16.8427C81.4528 16.4827 81.4528 16.1231 81.4528 15.6932H3.43805V78.1332H81.3985C81.4161 77.7909 81.4494 77.4397 81.45 77.088C81.4539 73.5457 81.4505 70.0034 81.4551 66.4611C81.4551 66.0959 81.4483 65.7223 81.5218 65.3664C81.6778 64.6134 82.2229 64.1908 83.0366 64.1439C83.8553 64.0965 84.4529 64.4675 84.6949 65.1954C84.8182 65.5665 84.8414 65.9765 84.842 66.3694C84.8499 73.7593 84.8544 81.1497 84.8448 88.5396C84.8408 91.9199 82.7719 93.815 79.1086 93.8155C54.8859 93.8176 30.6632 93.7911 6.44101 93.8473C3.22827 93.8546 0.986939 92.9005 -0.000854492 89.969V3.84815C0.631288 1.86493 2.02901 0.587253 4.17536 0C29.6918 0 55.2081 0 80.7251 0H80.7245ZM3.38603 81.3806C3.38603 83.7364 3.38603 85.9926 3.38603 88.2484C3.38603 90.2806 3.84459 90.6959 6.08253 90.6964C30.3267 90.6964 54.5704 90.6964 78.8146 90.6959C79.1453 90.6959 79.4812 90.7151 79.8069 90.674C80.6884 90.563 81.3589 90.1341 81.3748 89.2827C81.424 86.6674 81.3929 84.0511 81.3929 81.3811H3.38603V81.3806ZM81.4522 12.4579C81.4522 10.1839 81.4522 7.99278 81.4522 5.80114C81.4522 3.48183 81.0706 3.12385 78.6014 3.12385C54.4567 3.12385 30.312 3.12385 6.16734 3.12385C5.90216 3.12385 5.63698 3.11655 5.37236 3.12593C4.06171 3.17127 3.42335 3.7408 3.39225 4.94449C3.36567 5.98143 3.38603 7.01993 3.38603 8.05792C3.38603 9.51276 3.38603 10.9676 3.38603 12.4579H81.4522Z" fill="#0E35A0"/>
<path d="M6.77433 35.9761C6.77433 31.4584 6.77094 26.9412 6.77603 22.4235C6.77886 19.9916 8.09855 18.7593 10.7487 18.7567C19.4262 18.7473 28.1043 18.7468 36.7819 18.7572C39.4168 18.7603 40.7297 20.002 40.7308 22.4495C40.7348 31.4543 40.7348 40.4584 40.7308 49.4632C40.7297 51.9727 39.4388 53.1534 36.7039 53.1539C28.0591 53.1565 19.4144 53.1571 10.7696 53.1539C8.05332 53.1529 6.77716 51.9633 6.7749 49.4371C6.77151 44.9501 6.77377 40.4631 6.77433 35.9761ZM10.2172 43.7329H37.2829V21.9649H10.2172V43.7329ZM10.1929 49.9748H37.2676V46.9787H10.1929V49.9748Z" fill="#0E35A0"/>
<path d="M61.1442 40.6652C56.8063 40.6652 52.4684 40.6678 48.1305 40.6642C45.4017 40.6621 44.1245 39.4819 44.1228 36.9625C44.1194 32.1102 44.1188 27.2585 44.1228 22.4062C44.125 19.9671 45.4249 18.7587 48.0909 18.7561C56.7334 18.7472 65.3759 18.7483 74.0189 18.7556C76.7533 18.7576 78.0317 19.9384 78.0368 22.4625C78.047 27.284 78.0459 32.1055 78.0374 36.927C78.0329 39.5032 76.7584 40.6631 73.9584 40.6647C69.6867 40.6673 65.4149 40.6652 61.1437 40.6652H61.1442ZM47.5673 37.4809H54.2308V21.9643H47.5673V37.4809ZM74.5804 21.9508H57.7427V28.0938H74.5804V21.9508ZM74.5781 31.3687H57.7291V37.4658H74.5781V31.3687Z" fill="#0E35A0"/>
<path d="M24.5998 56.2792C28.6403 56.2792 32.6808 56.275 36.7214 56.2808C39.4128 56.2844 40.7262 57.5084 40.7313 60.0096C40.7364 62.7869 40.7404 65.5643 40.7296 68.3421C40.7206 70.6776 39.4105 71.9198 36.8735 71.9245C28.6929 71.9407 20.5129 71.9407 12.3324 71.9245C9.7767 71.9198 8.50959 70.712 8.50054 68.3453C8.4898 65.507 8.48754 62.6681 8.50111 59.8298C8.51242 57.4938 9.83155 56.2876 12.3782 56.2818C16.4521 56.2724 20.5254 56.2792 24.5993 56.2792H24.5998ZM37.2913 59.4692H11.9694V68.7209H37.2913V59.4692Z" fill="#0E35A0"/>
<path d="M96.5765 34.4218C98.6872 34.4646 100.249 35.3577 101.203 37.0793C102.144 38.7749 101.971 40.4423 100.833 42.0207C100.596 42.3495 100.311 42.6522 100.021 42.9446C95.5253 47.4732 91.0059 51.9821 86.5329 56.5295C84.123 58.9791 81.2507 60.5481 77.6376 60.8972C77.2831 60.9316 76.9252 61.1728 76.625 61.3854C76.2337 61.6626 75.9278 62.0435 75.532 62.315C74.832 62.7955 73.9482 62.709 73.3613 62.1566C72.7936 61.6225 72.6155 60.633 73.2398 60.1672C74.5052 59.223 74.7008 57.9812 74.9146 56.6316C75.2674 54.4077 76.3541 52.45 77.995 50.7873C82.8553 45.8626 87.7361 40.9551 92.6128 36.0439C93.6736 34.9757 94.9842 34.4093 96.5753 34.4218H96.5765ZM78.1488 57.654C80.4907 57.2658 82.2713 56.1825 83.7809 54.6646C87.1164 51.3109 90.4518 47.9573 93.7838 44.601C93.9518 44.4317 94.0892 44.2368 94.1112 44.2108C93.2518 43.3385 92.4591 42.5345 91.6629 41.7263C91.5431 41.8102 91.4554 41.8545 91.391 41.9191C87.787 45.5426 84.1733 49.1579 80.588 52.7971C79.2689 54.1357 78.4496 55.7166 78.1493 57.6535L78.1488 57.654ZM94.0309 39.2522C94.9181 40.0729 95.7662 40.8571 96.6748 41.6971C97.363 40.8394 98.6233 40.274 98.327 38.9046C98.1698 38.1777 97.6428 37.7119 96.8575 37.5957C95.3862 37.3779 94.8531 38.5321 94.0309 39.2527V39.2522Z" fill="#0E35A0"/>
<path d="M61.0391 68.794C65.8429 68.794 70.6468 68.7914 75.4506 68.7987C75.9114 68.7992 76.3915 68.8008 76.8285 68.9133C77.6224 69.1176 78.0187 69.6616 77.9916 70.4213C77.9662 71.1399 77.5591 71.6401 76.8031 71.8209C76.3937 71.9189 75.9504 71.9262 75.5224 71.9267C65.8814 71.9319 56.2409 71.9309 46.5999 71.9309C46.4676 71.9309 46.3347 71.9335 46.2024 71.9288C44.8997 71.8856 44.1612 71.3369 44.138 70.3963C44.1143 69.4224 44.8782 68.805 46.2295 68.8008C51.1657 68.7862 56.1024 68.7951 61.0385 68.7935L61.0391 68.794Z" fill="#0E35A0"/>
<path d="M60.2469 46.9077C55.6755 46.9077 51.1035 46.9093 46.532 46.9051C46.169 46.9051 45.7919 46.9213 45.447 46.8379C44.6175 46.6383 44.1307 46.1209 44.1482 45.3169C44.1658 44.5149 44.6707 44.0163 45.5075 43.8391C45.8247 43.7719 46.1657 43.7891 46.4964 43.7886C55.6399 43.7865 64.7833 43.7865 73.9268 43.787C74.0924 43.787 74.2581 43.7828 74.4238 43.7891C75.5829 43.8308 76.3547 44.4727 76.3338 45.3752C76.3134 46.2491 75.571 46.8733 74.46 46.901C73.4671 46.926 72.4725 46.9077 71.4785 46.9077C67.7348 46.9077 63.9917 46.9077 60.2481 46.9077H60.2469Z" fill="#0E35A0"/>
<path d="M57.5533 53.1548C53.8786 53.1548 50.2039 53.1564 46.5292 53.1527C46.1662 53.1527 45.7891 53.1736 45.4431 53.0944C44.6537 52.9136 44.1856 52.4232 44.1482 51.6645C44.1132 50.9486 44.4909 50.4207 45.2225 50.1826C45.5861 50.0643 45.9994 50.0362 46.3901 50.0357C53.9052 50.0273 61.4202 50.0294 68.9352 50.031C69.1993 50.031 69.4684 50.0226 69.7274 50.0633C70.6943 50.2144 71.2682 50.8673 71.2071 51.7193C71.15 52.5233 70.5303 53.0694 69.5702 53.1434C69.2739 53.1663 68.9748 53.1548 68.6768 53.1548C64.9688 53.1553 61.2613 53.1548 57.5533 53.1548Z" fill="#0E35A0"/>
<path d="M56.7628 59.4038C53.3538 59.4038 49.9455 59.4053 46.5365 59.4017C46.1735 59.4017 45.7987 59.4184 45.4498 59.3449C44.6503 59.1756 44.1912 58.679 44.1493 57.925C44.1097 57.2106 44.4841 56.6749 45.2174 56.4404C45.6121 56.3143 46.0599 56.2862 46.484 56.2857C53.3674 56.2768 60.2514 56.2794 67.1349 56.2794C67.3006 56.2794 67.4662 56.2737 67.6313 56.2825C68.804 56.3472 69.5634 56.9797 69.5487 57.876C69.534 58.7821 68.7837 59.3934 67.5855 59.3981C63.9781 59.4121 60.3707 59.4033 56.7639 59.4043L56.7628 59.4038Z" fill="#0E35A0"/>
<path d="M56.8736 65.6608C53.4647 65.6608 50.0557 65.6629 46.6468 65.6582C46.251 65.6582 45.8462 65.6645 45.4605 65.5947C44.6424 65.4467 44.1957 64.9334 44.151 64.1883C44.1064 63.4384 44.5055 62.8845 45.2983 62.6667C45.7014 62.5563 46.1458 62.537 46.5716 62.5365C53.4223 62.5292 60.2735 62.5313 67.1242 62.5318C67.3554 62.5318 67.5895 62.5245 67.8185 62.549C68.8634 62.661 69.5549 63.2941 69.5476 64.1195C69.5396 64.9975 68.8227 65.6395 67.6952 65.6468C64.0878 65.6702 60.4804 65.6556 56.873 65.6556V65.6608H56.8736Z" fill="#0E35A0"/>
<path d="M10.1459 7.86093C10.1233 8.73113 9.3402 9.39602 8.39029 9.35173C7.50597 9.31057 6.76809 8.58419 6.7958 7.78173C6.82294 6.98813 7.61905 6.26957 8.4751 6.2654C9.38713 6.26123 10.168 7.00689 10.1459 7.86041V7.86093Z" fill="#0E35A0"/>
<path d="M16.9243 7.77349C16.9491 8.65984 16.2231 9.3534 15.2704 9.35392C14.3753 9.35444 13.6222 8.68902 13.5888 7.86729C13.5555 7.0419 14.364 6.27019 15.2659 6.26759C16.1479 6.26498 16.9016 6.94915 16.9243 7.77297V7.77349Z" fill="#0E35A0"/>
<path d="M22.0588 6.26953C22.9386 6.27057 23.6918 6.95735 23.7127 7.77857C23.7353 8.66283 23.0053 9.35534 22.0526 9.35378C21.1095 9.35222 20.3626 8.64147 20.392 7.77284C20.4197 6.95787 21.1841 6.26849 22.0594 6.27005L22.0588 6.26953Z" fill="#0E35A0"/>
<path d="M16.901 37.8775C17.6864 35.8949 16.6183 34.563 15.0606 33.3932C14.7801 33.1827 14.5449 32.9195 14.2967 32.6741C13.0471 31.4397 13.4616 30.1641 15.2596 29.7597C16.4798 29.4856 17.7249 29.297 18.9292 28.975C19.4206 28.8437 19.9176 28.5315 20.2625 28.1777C20.9681 27.4534 21.5556 26.6327 22.2228 25.8751C23.1795 24.7881 24.3324 24.8017 25.3072 25.885C25.3496 25.9319 25.3982 25.9767 25.4282 26.0299C26.7371 28.3804 28.9095 29.4596 31.6885 29.6597C31.982 29.681 32.2743 29.7602 32.5576 29.841C33.9604 30.2407 34.3737 31.4746 33.4057 32.4844C32.6611 33.2608 31.8746 34.008 31.053 34.7151C30.539 35.1575 30.3813 35.6218 30.4712 36.2534C30.5877 37.0678 30.6238 37.8947 30.651 38.7175C30.7002 40.2182 29.7169 40.9196 28.1727 40.4871C27.0662 40.1771 25.9518 39.8759 24.8786 39.484C24.0825 39.1933 23.3706 39.2261 22.5881 39.5023C21.5398 39.8722 20.4604 40.1677 19.3878 40.4767C17.7633 40.9441 16.7879 40.2552 16.853 38.7003C16.8643 38.4257 16.8846 38.1522 16.901 37.8775ZM28.8626 32.2895C26.4069 32.2296 24.8938 30.9947 23.7347 29.0052C22.6056 31.0426 21.0693 32.201 18.6866 32.1994C19.3403 32.9737 20.1008 33.5474 20.362 34.2733C20.6334 35.0288 20.4225 35.9319 20.4225 36.9886C22.6898 35.7886 24.8418 35.8016 27.2036 37.0365C26.7269 35.0075 27.0487 33.4442 28.8631 32.289L28.8626 32.2895Z" fill="#0E35A0"/>
</g>
<defs>
<clipPath id="clip0_202_17">
<rect width="102" height="94" fill="white"/>
</clipPath>
</defs>
</svg>
