<svg width="93" height="93" viewBox="0 0 93 93" fill="none" xmlns="http://www.w3.org/2000/svg">
<g clip-path="url(#clip0_204_32)">
<path d="M0 92V0C30.3332 0 60.6668 0 91 0V92H0ZM3.06747 88.8727H87.9021V15.3772H3.06747V88.8727ZM87.9285 3.12422H3.09382V12.2038H87.9285V3.12422Z" fill="#0B26AD"/>
<path d="M81.8741 21.541V36.7553H9.15222V21.541H81.8741ZM12.1665 33.6623H78.8203V24.6125H12.1665V33.6623Z" fill="#0B26AD"/>
<path d="M81.8493 82.7837H45.5636V42.988H81.8493V82.7837ZM78.8457 46.0518H48.6042V79.6702H78.8457V46.0518Z" fill="#0B26AD"/>
<path d="M39.4175 52.2007V55.1061H9.14417V52.2007H39.4175Z" fill="#0B26AD"/>
<path d="M9.13452 64.335V61.385H39.38V64.335H9.13452Z" fill="#0B26AD"/>
<path d="M9.11218 82.7391V79.8254H39.3891V82.7391H9.11218Z" fill="#0B26AD"/>
<path d="M39.4165 70.5962V73.5416H9.13452V70.5962H39.4165Z" fill="#0B26AD"/>
<path d="M39.4226 42.9978V45.9268H15.2264V42.9978H39.4226Z" fill="#0B26AD"/>
<path d="M9.1416 42.9875H12.0479V45.9386H9.1416V42.9875Z" fill="#0B26AD"/>
<path d="M6.0929 9.1109V6.18188H9.03469V9.1109H6.0929Z" fill="#0B26AD"/>
<path d="M12.1877 6.17456H15.0844V9.1333H12.1877V6.17456Z" fill="#0B26AD"/>
<path d="M18.2422 9.12018V6.19116H21.1749V9.12018H18.2422Z" fill="#0B26AD"/>
<path d="M84.9062 6.19556V9.12663H81.9639V6.19556H84.9062Z" fill="#0B26AD"/>
</g>
<defs>
<clipPath id="clip0_204_32">
<rect width="91" height="92" fill="white"/>
</clipPath>
</defs>
</svg>
