<svg width="93" height="93" viewBox="0 0 93 93" fill="none" xmlns="http://www.w3.org/2000/svg">
<g clip-path="url(#clip0_205_2)">
<path d="M91 2.65996C90.7035 4.67132 90.4574 6.69117 90.1025 8.69205C88.0575 20.2166 84.2475 31.0402 77.2605 40.5693C74.1792 44.7717 70.4197 48.3367 66.4874 51.7254C65.5011 52.5756 64.5003 53.4098 63.483 54.2225C63.1007 54.5275 62.9514 54.7996 63.0433 55.3348C64.2762 62.5196 63.3687 69.4233 60.1577 75.983C56.9497 82.5368 52.0715 87.5041 45.6809 91.0006H44.7925C43.3684 90.098 43.1533 89.3981 43.9654 87.8286C46.6732 82.5962 47.8412 77.0489 47.3042 71.184C47.122 69.1946 46.6782 67.2292 46.3373 65.1505C44.9137 65.6721 43.6784 66.1214 42.4455 66.5772C40.9355 67.1348 39.4511 67.1708 37.9696 66.4489C37.7774 66.3551 37.3502 66.4035 37.2309 66.5488C34.2719 70.1606 30.0616 71.2984 25.8084 72.3033C24.0863 72.7102 22.3164 72.9238 20.5609 73.1754C18.8628 73.4185 17.9613 72.6148 18.139 70.9329C18.6317 66.2597 19.5067 61.6644 21.8796 57.5333C22.6747 56.1485 23.8542 54.9843 24.9259 53.6334C22.7721 50.6121 24.856 47.806 25.8408 44.6854C23.9002 44.3514 22.0039 43.9066 20.0827 43.7164C14.351 43.1493 8.8923 44.1887 3.73261 46.7641C3.3887 46.9359 3.04529 47.1091 2.69588 47.2679C1.88976 47.6338 1.12357 47.5973 0.501135 46.9184C-0.119305 46.242 -0.155742 45.4507 0.353388 44.7163C1.73303 42.7254 2.99388 40.6217 4.58915 38.8165C10.3348 32.3147 17.5939 28.607 26.2137 27.605C29.3498 27.2406 32.4835 27.3839 35.5882 27.944C36.1852 28.0518 36.4921 27.8766 36.844 27.4418C39.8469 23.7336 43.002 20.1646 46.541 16.9492C50.4473 13.3997 54.8298 10.5536 59.5348 8.20331C67.6204 4.16312 76.1863 1.65702 85.122 0.386507C86.322 0.215774 87.5379 0.157365 88.7433 0.0180823C89.7936 -0.103228 90.4839 0.394994 91 1.23768V2.65946V2.65996ZM48.1807 60.2117C48.4926 60.0459 48.7362 59.9406 48.9548 59.7973C52.4149 57.5253 55.9693 55.3817 59.3056 52.9405C63.9966 49.5084 68.3477 45.6469 72.1607 41.2423C77.6308 34.9241 81.2322 27.5716 83.7514 19.6564C83.8337 19.3973 83.7329 18.9445 83.5437 18.7538C79.7946 14.9638 76.0251 11.1936 72.2351 7.44449C72.0454 7.25679 71.5842 7.15844 71.3321 7.2488C68.9132 8.11894 66.4724 8.94565 64.1139 9.96207C57.8906 12.6444 52.2337 16.2233 47.393 21.0033C43.0849 25.2577 39.1636 29.852 35.7329 34.8432C33.9789 37.3953 32.3782 40.0526 30.6491 42.7544C38.7493 46.4626 44.5444 52.2566 48.1797 60.2117H48.1807ZM33.7009 31.3058C24.6399 29.7757 13.3527 33.5538 6.94912 41.6017C13.8219 39.453 20.6307 39.4935 27.2709 41.5108C29.4621 38.0333 31.5685 34.6895 33.7009 31.3058ZM49.3871 84.0939C57.8307 77.2351 61.1814 65.8549 59.6615 57.1849C59.3196 57.4175 59.0156 57.6392 58.6977 57.8389C55.871 59.6141 53.0543 61.4063 50.2022 63.1406C49.6262 63.491 49.445 63.7651 49.6546 64.4461C50.5371 67.3166 50.9519 70.2685 50.9993 73.2703C51.0567 76.9046 50.5162 80.4546 49.3871 84.0939ZM29.1662 45.9958C28.661 47.3742 28.1998 48.6787 27.7042 49.9696C27.3997 50.7629 27.5933 51.4279 28.1594 51.9965C31.7702 55.6203 35.3765 59.2497 39.0258 62.8346C39.3807 63.1835 40.089 63.504 40.5138 63.3907C42.0287 62.9853 43.4917 62.3873 45.0131 61.8481C41.6803 54.5195 36.4856 49.3122 29.1662 45.9963V45.9958ZM27.5155 56.5109C24.2965 58.411 22.6153 64.1815 21.9714 69.305C23.7953 69.3294 28.8287 67.991 31.1587 66.8633C32.6482 66.1424 33.9021 65.1465 34.815 63.7991C32.3777 61.3659 29.9708 58.9621 27.5155 56.5109ZM75.8768 5.76711C79.0459 8.94366 82.0628 11.9674 85.2239 15.136C85.9386 11.3449 86.6434 7.60674 87.4001 3.59151C83.3835 4.34982 79.6559 5.05323 75.8768 5.76661V5.76711Z" fill="#0B26AD"/>
<path d="M1.42855 90.9999C-0.25507 90.1033 -0.434763 88.9296 0.924914 87.5663C4.36953 84.1117 7.81314 80.6556 11.2842 77.2274C11.6621 76.8545 12.1857 76.5495 12.6953 76.4092C13.3746 76.2225 13.9661 76.5515 14.3555 77.152C14.7428 77.7496 14.7638 78.3836 14.3919 78.9867C14.1932 79.3087 13.9232 79.5942 13.6537 79.8643C10.2924 83.235 6.93165 86.6063 3.55093 89.9575C3.14013 90.3649 2.61303 90.655 2.13984 90.9994H1.42905L1.42855 90.9999Z" fill="#0B26AD"/>
<path d="M19.2007 90.9999C17.512 90.0998 17.3333 88.9341 18.6955 87.5678C22.1401 84.1131 25.5837 80.657 29.0548 77.2289C29.4327 76.8555 29.9558 76.5499 30.4654 76.4092C31.1452 76.222 31.8515 76.513 32.0921 77.162C32.2943 77.7071 32.2439 78.3931 32.138 78.9866C32.0801 79.3121 31.6948 79.5947 31.4253 79.8648C28.064 83.2355 24.7032 86.6068 21.3225 89.958C20.9117 90.3654 20.3846 90.6554 19.9119 90.9999H19.2011H19.2007Z" fill="#0B26AD"/>
<path d="M2.14584 73.1992C0.51962 73.2386 -0.380841 71.7839 0.25607 70.6277C0.43776 70.2982 0.714287 70.0112 0.983328 69.7411C4.38801 66.3244 7.79768 62.9132 11.2114 59.5056C11.4604 59.2569 11.73 59.0148 12.0275 58.8306C12.6893 58.4212 13.6147 58.554 14.1493 59.0957C14.6929 59.6463 14.8117 60.5474 14.3894 61.2189C14.2032 61.5154 13.9597 61.783 13.7106 62.0326C10.3044 65.4473 6.90121 68.8655 3.47207 72.2572C3.02983 72.6945 2.44633 72.9895 2.14584 73.1992Z" fill="#0B26AD"/>
<path d="M66.0287 33.8006C61.0991 33.7742 57.1713 29.8174 57.1992 24.9055C57.2272 19.9972 61.2463 15.9964 66.0911 16.0548C70.9977 16.1142 74.9963 20.1405 74.9439 24.9679C74.89 29.8947 70.9213 33.8266 66.0287 33.8006ZM66.0676 30.2457C68.9876 30.2402 71.376 27.8654 71.3905 24.9529C71.4045 22.0679 69.0071 19.6482 66.0945 19.6083C63.1775 19.5683 60.7352 22.018 60.7512 24.9684C60.7667 27.9008 63.1346 30.2512 66.0676 30.2457Z" fill="#0B26AD"/>
<path d="M47.9106 30.38C47.7743 30.6431 47.6096 31.1249 47.3146 31.5058C44.9456 34.566 42.5527 37.6078 40.1663 40.654C39.3936 41.6405 38.3998 41.8551 37.5548 41.2221C36.7212 40.5981 36.5455 39.5882 37.2758 38.6347C39.7186 35.4451 42.2078 32.2916 44.6951 29.1365C45.2182 28.4725 45.9399 28.2174 46.7531 28.515C47.4873 28.7835 47.8577 29.3671 47.9111 30.38H47.9106Z" fill="#0B26AD"/>
<path d="M50.9829 23.1819C51.9193 23.1839 52.7484 24.0081 52.7494 24.9381C52.7504 25.8787 51.9373 26.6799 50.9824 26.6799C50.016 26.6799 49.2294 25.8982 49.2289 24.9376C49.2289 23.9891 50.037 23.1799 50.9829 23.1819Z" fill="#0B26AD"/>
</g>
<defs>
<clipPath id="clip0_205_2">
<rect width="91" height="91" fill="white"/>
</clipPath>
</defs>
</svg>
